<?xml version="1.0" encoding="UTF-8" standalone="no"?>
<!DOCTYPE svg PUBLIC "-//W3C//DTD SVG 1.1//EN" "http://www.w3.org/Graphics/SVG/1.1/DTD/svg11.dtd">
<svg width="100%" height="100%" viewBox="0 0 300 300" version="1.1" xmlns="http://www.w3.org/2000/svg" xmlns:xlink="http://www.w3.org/1999/xlink" xml:space="preserve" xmlns:serif="http://www.serif.com/" style="fill-rule:evenodd;clip-rule:evenodd;stroke-linejoin:round;stroke-miterlimit:2;">
    <rect x="0" y="0" width="300" height="300" style="fill:rgb(134,168,231);"/>
    <g transform="matrix(100.458,0,0,100.458,28.5865,184.156)">
        <path d="M0.221,-0.057C0.217,-0.049 0.212,-0.041 0.206,-0.033C0.2,-0.026 0.194,-0.019 0.186,-0.013C0.179,-0.007 0.17,-0.003 0.161,0.001C0.152,0.004 0.143,0.006 0.134,0.006C0.108,0.006 0.09,-0.001 0.078,-0.015C0.067,-0.03 0.061,-0.049 0.061,-0.073L0.061,-0.669L0.151,-0.7L0.151,-0.071C0.151,-0.064 0.152,-0.058 0.155,-0.053C0.158,-0.048 0.163,-0.045 0.171,-0.045C0.178,-0.045 0.185,-0.048 0.192,-0.054C0.199,-0.06 0.204,-0.066 0.208,-0.072L0.221,-0.057Z" style="fill:white;fill-rule:nonzero;stroke:white;stroke-width:0.01px;"/>
    </g>
    <g transform="matrix(100.458,0,0,100.458,51.5913,184.156)">
        <path d="M0.444,-0.057C0.436,-0.041 0.428,-0.029 0.417,-0.021C0.407,-0.012 0.398,-0.006 0.389,-0.002C0.378,0.003 0.367,0.005 0.356,0.006C0.341,0.006 0.329,0.004 0.32,-0.001C0.311,-0.006 0.303,-0.012 0.298,-0.019C0.292,-0.027 0.288,-0.035 0.286,-0.044C0.284,-0.054 0.283,-0.063 0.283,-0.073L0.283,-0.229C0.281,-0.217 0.277,-0.203 0.273,-0.187C0.269,-0.171 0.264,-0.154 0.258,-0.136C0.252,-0.118 0.246,-0.101 0.238,-0.083C0.23,-0.066 0.221,-0.05 0.211,-0.037C0.2,-0.023 0.189,-0.012 0.176,-0.003C0.163,0.005 0.149,0.01 0.133,0.01C0.119,0.01 0.109,0.007 0.101,0.002C0.094,-0.003 0.088,-0.01 0.084,-0.019C0.08,-0.029 0.078,-0.04 0.077,-0.052C0.077,-0.065 0.076,-0.08 0.076,-0.095L0.076,-0.307C0.076,-0.315 0.074,-0.321 0.071,-0.326C0.067,-0.33 0.063,-0.333 0.057,-0.333C0.051,-0.333 0.045,-0.331 0.038,-0.327C0.031,-0.322 0.025,-0.316 0.018,-0.306L0.005,-0.321C0.012,-0.336 0.021,-0.349 0.031,-0.357C0.041,-0.366 0.05,-0.372 0.06,-0.376C0.07,-0.381 0.081,-0.383 0.093,-0.384C0.107,-0.384 0.119,-0.382 0.129,-0.377C0.138,-0.372 0.145,-0.366 0.151,-0.359C0.156,-0.352 0.16,-0.343 0.162,-0.334C0.164,-0.325 0.165,-0.315 0.165,-0.305L0.165,-0.103C0.165,-0.09 0.167,-0.082 0.172,-0.078C0.176,-0.074 0.182,-0.075 0.19,-0.08C0.197,-0.085 0.205,-0.094 0.214,-0.108C0.223,-0.121 0.232,-0.139 0.241,-0.161C0.247,-0.182 0.253,-0.204 0.258,-0.227C0.263,-0.246 0.267,-0.267 0.272,-0.29C0.277,-0.313 0.281,-0.335 0.283,-0.357L0.373,-0.388L0.373,-0.071C0.373,-0.063 0.375,-0.057 0.378,-0.052C0.382,-0.048 0.387,-0.045 0.392,-0.045C0.398,-0.045 0.404,-0.047 0.41,-0.051C0.417,-0.056 0.424,-0.062 0.43,-0.072L0.444,-0.057Z" style="fill:white;fill-rule:nonzero;stroke:white;stroke-width:0.01px;"/>
    </g>
    <g transform="matrix(100.458,0,0,100.458,96.9155,184.156)">
        <path d="M0.59,-0.057C0.582,-0.041 0.574,-0.029 0.563,-0.021C0.553,-0.012 0.544,-0.006 0.535,-0.002C0.524,0.003 0.513,0.005 0.502,0.006C0.487,0.006 0.475,0.004 0.466,-0.001C0.457,-0.006 0.449,-0.012 0.444,-0.019C0.438,-0.027 0.434,-0.035 0.432,-0.044C0.43,-0.054 0.429,-0.063 0.429,-0.073L0.429,-0.278C0.429,-0.283 0.428,-0.288 0.426,-0.292C0.424,-0.296 0.422,-0.298 0.418,-0.299C0.415,-0.299 0.411,-0.298 0.407,-0.294C0.402,-0.29 0.397,-0.283 0.392,-0.273C0.383,-0.247 0.375,-0.22 0.368,-0.191C0.362,-0.166 0.356,-0.138 0.351,-0.107C0.346,-0.076 0.343,-0.044 0.343,-0.011L0.253,0.02L0.253,-0.278C0.253,-0.283 0.252,-0.288 0.25,-0.292C0.248,-0.296 0.245,-0.298 0.242,-0.299C0.239,-0.299 0.235,-0.298 0.23,-0.294C0.225,-0.29 0.221,-0.283 0.216,-0.273C0.206,-0.246 0.198,-0.217 0.19,-0.188C0.187,-0.175 0.184,-0.161 0.181,-0.147C0.178,-0.133 0.176,-0.118 0.174,-0.103C0.171,-0.088 0.17,-0.072 0.168,-0.057C0.167,-0.041 0.167,-0.026 0.167,-0.011L0.078,0.02L0.078,-0.308C0.078,-0.316 0.076,-0.322 0.073,-0.327C0.069,-0.331 0.065,-0.334 0.059,-0.334C0.053,-0.334 0.047,-0.332 0.04,-0.328C0.033,-0.323 0.027,-0.317 0.02,-0.307L0.007,-0.322C0.014,-0.337 0.023,-0.35 0.033,-0.358C0.043,-0.367 0.053,-0.373 0.062,-0.377C0.073,-0.382 0.084,-0.384 0.095,-0.385C0.11,-0.385 0.121,-0.382 0.131,-0.378C0.14,-0.373 0.147,-0.367 0.153,-0.36C0.158,-0.353 0.162,-0.344 0.164,-0.335C0.166,-0.326 0.167,-0.316 0.167,-0.306L0.167,-0.203C0.173,-0.232 0.182,-0.258 0.193,-0.281C0.205,-0.303 0.217,-0.322 0.23,-0.338C0.243,-0.353 0.256,-0.365 0.268,-0.373C0.28,-0.381 0.29,-0.385 0.298,-0.385C0.307,-0.385 0.315,-0.383 0.321,-0.38C0.327,-0.377 0.331,-0.372 0.334,-0.366C0.338,-0.36 0.34,-0.352 0.341,-0.344C0.342,-0.335 0.343,-0.324 0.343,-0.312L0.343,-0.203C0.349,-0.232 0.358,-0.258 0.369,-0.281C0.381,-0.303 0.393,-0.322 0.406,-0.338C0.419,-0.353 0.432,-0.365 0.444,-0.373C0.457,-0.381 0.467,-0.385 0.474,-0.385C0.493,-0.385 0.505,-0.379 0.51,-0.366C0.516,-0.354 0.519,-0.336 0.519,-0.312L0.519,-0.071C0.519,-0.063 0.521,-0.057 0.524,-0.052C0.528,-0.048 0.533,-0.045 0.538,-0.045C0.544,-0.045 0.55,-0.047 0.556,-0.051C0.563,-0.056 0.57,-0.062 0.576,-0.072L0.59,-0.057Z" style="fill:white;fill-rule:nonzero;stroke:white;stroke-width:0.01px;"/>
    </g>
    <g transform="matrix(100.458,0,0,100.458,156.807,184.156)">
        <path d="M0.435,-0.058C0.431,-0.05 0.426,-0.042 0.42,-0.034C0.415,-0.027 0.408,-0.02 0.4,-0.014C0.392,-0.008 0.384,-0.004 0.375,-0C0.366,0.003 0.357,0.005 0.347,0.005C0.321,0.005 0.303,-0.002 0.292,-0.016C0.281,-0.031 0.275,-0.05 0.275,-0.074L0.275,-0.083C0.269,-0.072 0.262,-0.061 0.255,-0.05C0.248,-0.039 0.24,-0.029 0.23,-0.02C0.221,-0.011 0.211,-0.004 0.199,0.001C0.188,0.007 0.175,0.01 0.161,0.01C0.14,0.01 0.121,0.006 0.105,-0.002C0.089,-0.011 0.075,-0.022 0.064,-0.035C0.053,-0.049 0.045,-0.065 0.039,-0.084C0.034,-0.103 0.031,-0.122 0.031,-0.143C0.031,-0.171 0.036,-0.2 0.046,-0.228C0.056,-0.256 0.07,-0.281 0.088,-0.303C0.106,-0.325 0.127,-0.343 0.153,-0.357C0.178,-0.371 0.206,-0.378 0.237,-0.378C0.249,-0.378 0.262,-0.377 0.274,-0.375C0.286,-0.372 0.298,-0.369 0.309,-0.364C0.321,-0.358 0.331,-0.352 0.34,-0.344C0.349,-0.336 0.357,-0.326 0.363,-0.314L0.29,-0.283C0.286,-0.289 0.282,-0.295 0.277,-0.301C0.272,-0.307 0.266,-0.312 0.26,-0.316C0.254,-0.32 0.248,-0.324 0.241,-0.326C0.234,-0.329 0.227,-0.33 0.219,-0.33C0.202,-0.33 0.187,-0.325 0.174,-0.314C0.161,-0.304 0.15,-0.291 0.14,-0.276C0.131,-0.261 0.124,-0.244 0.119,-0.227C0.114,-0.21 0.112,-0.194 0.112,-0.18C0.112,-0.168 0.113,-0.154 0.115,-0.138C0.118,-0.123 0.122,-0.108 0.128,-0.095C0.135,-0.081 0.143,-0.069 0.153,-0.06C0.163,-0.051 0.176,-0.046 0.191,-0.046C0.203,-0.046 0.213,-0.049 0.222,-0.054C0.231,-0.059 0.238,-0.066 0.245,-0.075C0.251,-0.084 0.256,-0.094 0.26,-0.105C0.264,-0.116 0.267,-0.127 0.269,-0.139C0.271,-0.151 0.273,-0.163 0.274,-0.174C0.274,-0.186 0.275,-0.196 0.275,-0.205L0.275,-0.239L0.364,-0.27L0.364,-0.072C0.364,-0.065 0.365,-0.059 0.369,-0.054C0.372,-0.049 0.377,-0.046 0.384,-0.046C0.392,-0.046 0.399,-0.049 0.406,-0.055C0.413,-0.061 0.418,-0.067 0.422,-0.073L0.435,-0.058Z" style="fill:white;fill-rule:nonzero;stroke:white;stroke-width:0.01px;"/>
    </g>
    <g transform="matrix(100.458,0,0,100.458,200.708,184.156)">
        <path d="M0.413,-0.054C0.408,-0.046 0.402,-0.038 0.395,-0.03C0.388,-0.022 0.38,-0.016 0.371,-0.01C0.363,-0.005 0.354,-0 0.344,0.003C0.334,0.006 0.324,0.008 0.314,0.008C0.301,0.008 0.288,0.003 0.274,-0.006C0.261,-0.016 0.247,-0.027 0.234,-0.04C0.221,-0.053 0.209,-0.067 0.197,-0.081C0.186,-0.095 0.175,-0.106 0.166,-0.115L0.158,-0.111C0.157,-0.105 0.155,-0.098 0.154,-0.089C0.153,-0.08 0.151,-0.071 0.15,-0.062C0.149,-0.052 0.149,-0.043 0.148,-0.034C0.148,-0.025 0.147,-0.017 0.147,-0.011L0.057,0.02L0.057,-0.669L0.147,-0.7L0.147,-0.158C0.151,-0.17 0.155,-0.184 0.16,-0.2C0.165,-0.216 0.171,-0.232 0.178,-0.249C0.185,-0.266 0.194,-0.282 0.203,-0.298C0.212,-0.315 0.222,-0.329 0.233,-0.342C0.244,-0.355 0.256,-0.365 0.27,-0.373C0.283,-0.381 0.297,-0.385 0.313,-0.385C0.322,-0.385 0.331,-0.383 0.339,-0.38C0.346,-0.376 0.353,-0.372 0.358,-0.366C0.364,-0.36 0.368,-0.353 0.371,-0.345C0.374,-0.337 0.375,-0.329 0.375,-0.32C0.375,-0.301 0.37,-0.284 0.361,-0.267C0.352,-0.25 0.341,-0.234 0.327,-0.219C0.313,-0.205 0.298,-0.191 0.282,-0.18C0.266,-0.168 0.251,-0.158 0.237,-0.15C0.241,-0.146 0.247,-0.141 0.252,-0.134C0.258,-0.127 0.264,-0.12 0.271,-0.113C0.277,-0.105 0.284,-0.098 0.291,-0.09C0.298,-0.082 0.305,-0.075 0.312,-0.069C0.318,-0.063 0.325,-0.058 0.332,-0.054C0.339,-0.05 0.346,-0.048 0.352,-0.048C0.361,-0.048 0.37,-0.05 0.378,-0.054C0.386,-0.058 0.392,-0.064 0.398,-0.071L0.413,-0.054ZM0.282,-0.284C0.282,-0.29 0.28,-0.295 0.275,-0.3C0.27,-0.305 0.265,-0.307 0.26,-0.307C0.253,-0.307 0.247,-0.304 0.24,-0.297C0.233,-0.291 0.227,-0.283 0.221,-0.272C0.215,-0.262 0.209,-0.251 0.203,-0.239C0.197,-0.226 0.192,-0.214 0.188,-0.203C0.183,-0.191 0.179,-0.18 0.176,-0.17C0.172,-0.16 0.17,-0.153 0.168,-0.148C0.173,-0.151 0.178,-0.156 0.186,-0.163C0.193,-0.169 0.201,-0.177 0.209,-0.185C0.218,-0.193 0.226,-0.202 0.235,-0.211C0.244,-0.22 0.252,-0.23 0.259,-0.239C0.266,-0.247 0.271,-0.256 0.276,-0.264C0.28,-0.272 0.282,-0.279 0.282,-0.284Z" style="fill:white;fill-rule:nonzero;stroke:white;stroke-width:0.01px;"/>
    </g>
    <g transform="matrix(100.458,0,0,100.458,243.285,184.156)">
        <path d="M0.152,-0.637L0.126,-0.459L0.078,-0.444L0.049,-0.602L0.152,-0.637ZM0.219,-0.057C0.212,-0.041 0.203,-0.029 0.193,-0.021C0.183,-0.012 0.174,-0.006 0.165,-0.002C0.154,0.003 0.143,0.005 0.132,0.006C0.118,0.006 0.106,0.004 0.096,-0.001C0.087,-0.006 0.079,-0.012 0.074,-0.019C0.068,-0.027 0.064,-0.035 0.062,-0.044C0.06,-0.054 0.059,-0.063 0.059,-0.073L0.059,-0.347L0.149,-0.378L0.149,-0.071C0.149,-0.063 0.151,-0.057 0.154,-0.052C0.158,-0.048 0.163,-0.045 0.168,-0.045C0.174,-0.045 0.18,-0.047 0.187,-0.051C0.193,-0.056 0.2,-0.062 0.206,-0.072L0.219,-0.057Z" style="fill:white;fill-rule:nonzero;stroke:white;stroke-width:0.01px;"/>
    </g>
</svg>
