<?xml version="1.0" encoding="UTF-8" standalone="no"?>
<!DOCTYPE svg PUBLIC "-//W3C//DTD SVG 1.1//EN" "http://www.w3.org/Graphics/SVG/1.1/DTD/svg11.dtd">
<svg width="100%" height="100%" viewBox="0 0 300 60" version="1.1" xmlns="http://www.w3.org/2000/svg" xmlns:xlink="http://www.w3.org/1999/xlink" xml:space="preserve" xmlns:serif="http://www.serif.com/" style="fill-rule:evenodd;clip-rule:evenodd;stroke-linejoin:round;stroke-miterlimit:2;">
    <g transform="matrix(1.61842,0,0,2.01362,-327.278,-1007.5)">
        <path d="M294.904,500.908C345.128,500.908 385.904,507.331 385.904,515.242C385.904,523.152 345.128,529.575 294.904,529.575C244.679,529.575 203.904,523.152 203.904,515.242C203.904,507.331 244.679,500.908 294.904,500.908ZM294.904,503.908C340.62,503.908 377.737,508.987 377.737,515.242C377.737,521.497 340.62,526.575 294.904,526.575C249.187,526.575 212.07,521.497 212.07,515.242C212.07,508.987 249.187,503.908 294.904,503.908Z" style="fill:rgb(0,222,211);"/>
    </g>
</svg>
